HIERARCHY
ROOT ui
{
	 OFFSET 0 0 0
	 CHANNELS 3 XPosition YPosition Z Position
	 EndSite
	 {
	 OFFSET 0 -1 0
	 }
}
ROOT li
{
	 OFFSET 0 0 0
	 CHANNELS 3 XPosition YPosition Z Position
	 EndSite
	 {
	 OFFSET 0 -1 0
	 }
}
ROOT ul
{
	 OFFSET 0 0 0
	 CHANNELS 3 XPosition YPosition Z Position
	 EndSite
	 {
	 OFFSET 0 -1 0
	 }
}
ROOT ll
{
	 OFFSET 0 0 0
	 CHANNELS 3 XPosition YPosition Z Position
	 EndSite
	 {
	 OFFSET 0 -1 0
	 }
}
ROOT tt
{
	 OFFSET 0 0 0
	 CHANNELS 3 XPosition YPosition Z Position
	 EndSite
	 {
	 OFFSET 0 -1 0
	 }
}
ROOT tb
{
	 OFFSET 0 0 0
	 CHANNELS 3 XPosition YPosition Z Position
	 EndSite
	 {
	 OFFSET 0 -1 0
	 }
}
ROOT td
{
	 OFFSET 0 0 0
	 CHANNELS 3 XPosition YPosition Z Position
	 EndSite
	 {
	 OFFSET 0 -1 0
	 }
}
ROOT v
{
	 OFFSET 0 0 0
	 CHANNELS 3 XPosition YPosition Z Position
	 EndSite
	 {
	 OFFSET 0 -1 0
	 }
}
ROOT bn
{
	 OFFSET 0 0 0
	 CHANNELS 3 XPosition YPosition Z Position
	 EndSite
	 {
	 OFFSET 0 -1 0
	 }
}
MOTION
Frames: 19
Frame Time: 0.002
-0.02678156661987305	-0.004895158767700195	0		0.5538318481445312	-2.643056884765625	0		-1.1207042236328124	0.12756291961669922	0		-0.63744873046875	-2.70898583984375	0		2.5462607421875	-1.7445137939453126	0		3.6053466796875	-0.443180908203125	0		5.00325341796875	0.42937982177734374	0		5.7845986328125	0.5875603637695312	0		-0.3886359558105469	5.88004052734375	0		
0.038821044921875	0.0014775489568710327	0		0.5781524047851563	-2.649005126953125	0		-1.0493184814453125	0.12086456298828124	0		-0.6411090087890625	-2.7134306640625	0		2.546692626953125	-1.745109375	0		3.60776123046875	-0.4468372802734375	0		5.00709521484375	0.4496668701171875	0		5.78493994140625	0.5863848876953125	0		-0.25665374755859377	5.89930615234375	0		
-0.03565450286865234	0.0032330551147460936	0		0.5385692138671875	-2.649855224609375	0		-1.119723876953125	0.12658010864257813	0		-0.6406826782226562	-2.713925537109375	0		2.56215869140625	-1.744940673828125	0		3.601399658203125	-0.4383253173828125	0		5.01248486328125	0.4419419250488281	0		5.7852958984375	0.585240478515625	0		-0.37319000244140627	5.88878125	0		
0.059833267211914065	1.3628600537776947E-4	0		0.5960106201171875	-2.651323486328125	0		-1.0361126708984374	0.13071363830566407	0		-0.6690781860351562	-2.704908203125	0		2.56774951171875	-1.738581787109375	0		3.624089599609375	-0.4282818603515625	0		5.0253515625	0.46111688232421877	0		5.7915654296875	0.6115768432617188	0		-0.35736895751953124	5.897046875	0		
-0.027479061126708983	0.009163030624389648	0		0.5856527709960937	-2.64161669921875	0		-1.0355699462890624	0.13027734375	0		-0.639765380859375	-2.714844482421875	0		2.557347412109375	-1.73292529296875	0		3.6078408203125	-0.4155518798828125	0		5.02591943359375	0.4615241394042969	0		5.7890029296875	0.596796875	0		-0.37281094360351563	5.888865234375	0		
0.040932621002197266	-4.240410029888153E-4	0		0.5830582275390624	-2.647013916015625	0		-1.0431273193359376	0.12300664520263672	0		-0.6423448486328125	-2.719210693359375	0		2.557860595703125	-1.73342431640625	0		3.608387451171875	-0.41607763671875	0		5.02648828125	0.4609622802734375	0		5.7894013671875	0.5957914428710938	0		-0.2548999938964844	5.89945166015625	0		
-0.033470512390136715	0.001447741985321045	0		0.5835614013671875	-2.64743115234375	0		-1.0494691162109375	0.12774812316894532	0		-0.6458938598632813	-2.722529052734375	0		2.558386474609375	-1.7338907470703124	0		3.608946044921875	-0.4165701599121094	0		5.02706884765625	0.46043450927734375	0		5.78685888671875	0.5811253051757812	0		-0.3875052490234375	5.88132080078125	0		
0.04207494354248047	-0.001199084997177124	0		0.5742424926757812	-2.637646728515625	0		-1.0379283447265626	0.12521620178222656	0		-0.6782964477539063	-2.717322265625	0		2.566087158203125	-1.7244434814453125	0		3.603663330078125	-0.4079267578125	0		5.026875	0.47295785522460937	0		5.79505322265625	0.5712699584960937	0		-0.2534682922363281	5.89869140625	0		
-0.02520985794067383	0.007622199058532715	0		0.562716796875	-2.639791748046875	0		-1.0392027587890624	0.13393698120117187	0		-0.6428649291992188	-2.7222392578125	0		2.577511474609375	-1.7310272216796876	0		3.61235791015625	-0.4004858093261719	0		5.04131640625	0.46426522827148436	0		5.80187890625	0.5701859130859375	0		-0.40599395751953127	5.88597265625	0		
0.04319777297973633	-0.0018395639657974242	0		0.58712109375	-2.645515869140625	0		-1.0386456298828124	0.133658935546875	0		-0.6803681640625	-2.721877197265625	0		2.583144287109375	-1.72447509765625	0		3.607869384765625	-0.4027854309082031	0		5.04188134765625	0.4638469543457031	0		5.7958564453125	0.5696978149414063	0		-0.37122378540039064	5.8900986328125	0		
-0.028179435729980468	0.004122735977172852	0		0.5875884399414063	-2.64579638671875	0		-1.0421666259765625	0.1304836883544922	0		-0.6140831909179687	-2.7332568359375	0		2.58363232421875	-1.7248006591796874	0		3.635246337890625	-0.41159451293945315	0		5.03831640625	0.4575355529785156	0		5.7962333984375	0.5690098876953125	0		-0.2523938140869141	5.89881982421875	0		
-0.0057652020454406734	-4.8607200384140017E-4	0		0.5839317016601563	-2.650973388671875	0		-1.122563232421875	0.13765933227539062	0		-0.6537022705078125	-2.735791259765625	0		2.55120556640625	-1.7175260009765625	0		3.595814697265625	-0.40622256469726564	0		5.0426748046875	0.44912539672851565	0		5.7984638671875	0.5319747314453125	0		-0.25276239013671875	5.89960888671875	0		
-0.03032908058166504	-2.571539878845215E-4	0		0.5863418579101562	-2.64922021484375	0		-1.0371917724609374	0.13302632141113283	0		-0.6435180053710937	-2.747147216796875	0		2.535706787109375	-1.711506591796875	0		3.611236328125	-0.4067559814453125	0		5.0382373046875	0.45590316772460937	0		5.793732421875	0.5247045288085938	0		-0.40250836181640626	5.8829892578125	0		
-0.022839515686035157	0.0064547848701477055	0		0.5408861083984375	-2.6356123046875	0		-1.1077222900390624	0.13909896850585937	0		-0.6411717529296875	-2.745335693359375	0		2.534092529296875	-1.70869384765625	0		3.624630615234375	-0.4052235107421875	0		5.03448095703125	0.4476986999511719	0		5.80177978515625	0.5152268676757813	0		-0.3868437805175781	5.8925712890625	0		
0.002461767911911011	0.0058888659477233886	0		0.5899898681640625	-2.6446015625	0		-1.0383558349609374	0.14179933166503905	0		-0.6480620727539063	-2.753337158203125	0		2.51768994140625	-1.6895953369140626	0		3.614979736328125	-0.4022662353515625	0		5.0437939453125	0.44729971313476563	0		5.78343212890625	0.5120894165039063	0		-0.38361968994140627	5.88039306640625	0		
-0.029413709640502928	-6.677939891815186E-4	0		0.5891394653320312	-2.646705078125	0		-1.1171527099609375	0.14007308959960937	0		-0.66684326171875	-2.75110498046875	0		2.523669677734375	-1.7028585205078124	0		3.5971279296875	-0.40714093017578123	0		5.039923828125	0.44015396118164063	0		5.776091796875	0.45836505126953125	0		-0.24993000793457032	5.8980009765625	0		
-0.004237555027008057	-0.0011813780069351197	0		0.5773870239257812	-2.639594970703125	0		-1.041998291015625	0.13772059631347655	0		-0.659979736328125	-2.76629296875	0		2.526865478515625	-1.7000462646484376	0		3.599040771484375	-0.4223309326171875	0		5.03085546875	0.4251236877441406	0		5.775986328125	0.42514935302734375	0		-0.25061085510253905	5.89893994140625	0		
-0.02910607147216797	-8.122169971466064E-4	0		0.537433837890625	-2.640978271484375	0		-1.1127708740234374	0.1439031524658203	0		-0.65009814453125	-2.777512939453125	0		2.4931025390625	-1.6915733642578126	0		3.59333349609375	-0.41236260986328127	0		5.0348359375	0.4158938903808594	0		5.77167578125	0.4077251892089844	0		-0.4016366882324219	5.88448974609375	0		
0.04595261764526367	-0.003151231050491333	0		0.590410888671875	-2.64494775390625	0		-1.025521240234375	0.15237594604492188	0		-0.6520982666015624	-2.77951025390625	0		2.5003291015625	-1.681787841796875	0		3.59749853515625	-0.40754550170898435	0		5.03106982421875	0.4238211975097656	0		5.75931884765625	0.3664520568847656	0		-0.36735595703125	5.888865234375	0		
